<svg width="98" height="98" viewBox="0 0 98 98" fill="none" xmlns="http://www.w3.org/2000/svg">
<path fill-rule="evenodd" clip-rule="evenodd" d="M49 94C73.8526 94 94 73.8526 94 49C94 24.1472 73.8526 4 49 4C24.1472 4 4 24.1472 4 49C4 73.8526 24.1472 94 49 94Z" stroke="#ECF2F4" stroke-width="8"/>
<path d="M5.31623 39.085C4.45605 42.4915 4 46.0513 4 49.7141C4 66.4811 13.5562 81.0891 27.6879 88.7205" stroke="#40D07A" stroke-width="8" stroke-linecap="round" stroke-linejoin="round"/>
<path d="M27.2061 88.2075C33.6598 91.8978 41.091 94 48.9998 94V94" stroke="#40D07A" stroke-width="8" stroke-linecap="round" stroke-linejoin="round"/>
<path d="M49 94C73.8528 94 94 73.8526 94 49C94 24.1472 73.8528 4 49 4" stroke="#40D07A" stroke-width="8" stroke-linecap="round" stroke-linejoin="round"/>
<path opacity="0.81" d="M47.3628 53.9604C47.3628 55.3429 47.0399 56.5085 46.394 57.457C45.7482 58.3955 44.8602 59.1069 43.73 59.5913C42.6099 60.0656 41.3384 60.3027 39.9155 60.3027C38.4927 60.3027 37.2161 60.0656 36.0859 59.5913C34.9557 59.1069 34.0627 58.3955 33.4067 57.457C32.7508 56.5085 32.4229 55.3429 32.4229 53.9604C32.4229 53.0321 32.6095 52.1945 32.9829 51.4478C33.3563 50.6909 33.876 50.0451 34.542 49.5103C35.2181 48.9653 36.0103 48.5516 36.9185 48.269C37.8267 47.9764 38.8156 47.8301 39.8853 47.8301C41.3182 47.8301 42.5998 48.0824 43.73 48.5869C44.8602 49.0915 45.7482 49.8029 46.394 50.7212C47.0399 51.6395 47.3628 52.7192 47.3628 53.9604ZM42.9731 53.6729C42.9731 52.9967 42.842 52.4165 42.5796 51.9321C42.3273 51.4377 41.9691 51.0592 41.5049 50.7969C41.0407 50.5345 40.5008 50.4033 39.8853 50.4033C39.2697 50.4033 38.7298 50.5345 38.2656 50.7969C37.8014 51.0592 37.4382 51.4377 37.1758 51.9321C36.9235 52.4165 36.7974 52.9967 36.7974 53.6729C36.7974 54.3389 36.9235 54.9141 37.1758 55.3984C37.4382 55.8828 37.8014 56.2562 38.2656 56.5186C38.7399 56.7708 39.2899 56.897 39.9155 56.897C40.5412 56.897 41.0811 56.7708 41.5352 56.5186C41.9993 56.2562 42.3525 55.8828 42.5947 55.3984C42.847 54.9141 42.9731 54.3389 42.9731 53.6729ZM46.8936 43.8037C46.8936 44.9238 46.5959 45.9178 46.0005 46.7856C45.4051 47.6434 44.5776 48.3145 43.5181 48.7988C42.4686 49.2832 41.2677 49.5254 39.9155 49.5254C38.5532 49.5254 37.3423 49.2832 36.2827 48.7988C35.2231 48.3145 34.3957 47.6434 33.8003 46.7856C33.2049 45.9178 32.9072 44.9238 32.9072 43.8037C32.9072 42.4717 33.2049 41.3516 33.8003 40.4434C34.4058 39.5251 35.2332 38.8288 36.2827 38.3545C37.3423 37.8802 38.5431 37.6431 39.8853 37.6431C41.2476 37.6431 42.4535 37.8802 43.5029 38.3545C44.5625 38.8288 45.39 39.5251 45.9854 40.4434C46.5908 41.3516 46.8936 42.4717 46.8936 43.8037ZM42.5342 44.0005C42.5342 43.4051 42.4282 42.8905 42.2163 42.4565C42.0044 42.0125 41.7017 41.6694 41.3081 41.4272C40.9246 41.1851 40.4504 41.064 39.8853 41.064C39.3403 41.064 38.8711 41.18 38.4775 41.4121C38.0941 41.6442 37.7964 41.9823 37.5845 42.4263C37.3826 42.8602 37.2817 43.3849 37.2817 44.0005C37.2817 44.5959 37.3826 45.1206 37.5845 45.5747C37.7964 46.0187 38.0991 46.3669 38.4927 46.6191C38.8862 46.8714 39.3605 46.9976 39.9155 46.9976C40.4705 46.9976 40.9398 46.8714 41.3232 46.6191C41.7168 46.3669 42.0145 46.0187 42.2163 45.5747C42.4282 45.1206 42.5342 44.5959 42.5342 44.0005ZM60.9404 37.9155V60H56.5811V42.9409L51.3438 44.606V41.1699L60.4712 37.9155H60.9404Z" fill="#899A96"/>
</svg>
