<svg width="98" height="98" viewBox="0 0 98 98" fill="none" xmlns="http://www.w3.org/2000/svg">
<path fill-rule="evenodd" clip-rule="evenodd" d="M49 94C73.8526 94 94 73.8526 94 49C94 24.1472 73.8526 4 49 4C24.1472 4 4 24.1472 4 49C4 73.8526 24.1472 94 49 94Z" stroke="#ECF2F4" stroke-width="8"/>
<path d="M5.31623 39.085C4.45605 42.4915 4 46.0513 4 49.7141C4 66.4811 13.5562 81.0891 27.6879 88.7205" stroke="#FFC542" stroke-width="8" stroke-linecap="round" stroke-linejoin="round"/>
<path d="M27.2061 88.2075C33.6598 91.8978 41.091 94 48.9998 94V94" stroke="#FFC542" stroke-width="8" stroke-linecap="round" stroke-linejoin="round"/>
<path d="M49 94C73.8528 94 94 73.8526 94 49C94 24.1472 73.8528 4 49 4" stroke="#FFC542" stroke-width="8" stroke-linecap="round" stroke-linejoin="round"/>
<path d="M47.4839 37.9609V40.3071L38.9619 60H34.3604L42.8823 41.3667H31.9082V37.9609H47.4839ZM53.4023 56.6851H53.6899C54.9009 56.6851 55.9403 56.5387 56.8081 56.2461C57.686 55.9434 58.4076 55.5094 58.9727 54.9443C59.5378 54.3792 59.9565 53.688 60.229 52.8706C60.5015 52.0431 60.6377 51.1047 60.6377 50.0552V45.8774C60.6377 45.0802 60.557 44.3789 60.3955 43.7734C60.2441 43.168 60.0221 42.6685 59.7295 42.2749C59.4469 41.8713 59.1139 41.5685 58.7305 41.3667C58.3571 41.1649 57.9434 41.064 57.4893 41.064C57.0049 41.064 56.576 41.1851 56.2026 41.4272C55.8293 41.6593 55.5114 41.9772 55.249 42.3809C54.9967 42.7845 54.8 43.2487 54.6587 43.7734C54.5275 44.2881 54.4619 44.828 54.4619 45.3931C54.4619 45.9582 54.5275 46.498 54.6587 47.0127C54.7899 47.5173 54.9867 47.9663 55.249 48.3599C55.5114 48.7433 55.8394 49.0511 56.2329 49.2832C56.6265 49.5052 57.0907 49.6162 57.6255 49.6162C58.1401 49.6162 58.5993 49.5203 59.0029 49.3286C59.4167 49.1268 59.7648 48.8644 60.0474 48.5415C60.34 48.2186 60.562 47.8604 60.7134 47.4668C60.8748 47.0732 60.9556 46.6746 60.9556 46.271L62.3936 47.0581C62.3936 47.7645 62.2422 48.4608 61.9395 49.147C61.6367 49.8332 61.2129 50.4588 60.668 51.0239C60.1331 51.5789 59.5125 52.0229 58.8062 52.356C58.0998 52.689 57.3429 52.8555 56.5356 52.8555C55.5063 52.8555 54.5931 52.6688 53.7959 52.2954C52.9987 51.9119 52.3226 51.3872 51.7676 50.7212C51.2227 50.0451 50.8089 49.258 50.5264 48.3599C50.2438 47.4618 50.1025 46.488 50.1025 45.4385C50.1025 44.3688 50.2741 43.3647 50.6172 42.4263C50.9704 41.4878 51.4699 40.6603 52.1157 39.9438C52.7716 39.2274 53.5537 38.6673 54.4619 38.2637C55.3802 37.8499 56.3994 37.6431 57.5195 37.6431C58.6396 37.6431 59.6589 37.86 60.5771 38.2939C61.4954 38.7279 62.2826 39.3434 62.9385 40.1406C63.5944 40.9277 64.099 41.8713 64.4521 42.9712C64.8154 44.0711 64.9971 45.2922 64.9971 46.6343V48.1479C64.9971 49.5809 64.8407 50.9129 64.5278 52.144C64.2251 53.3752 63.766 54.4902 63.1504 55.4893C62.5449 56.4782 61.7881 57.3258 60.8799 58.0322C59.9818 58.7386 58.9373 59.2785 57.7466 59.6519C56.5558 60.0252 55.2238 60.2119 53.7505 60.2119H53.4023V56.6851Z" fill="#899A96"/>
</svg>
