<svg width="52" height="52" viewBox="0 0 52 52" fill="none" xmlns="http://www.w3.org/2000/svg">
<path fill-rule="evenodd" clip-rule="evenodd" d="M37.2603 0.166504H14.7398C5.99433 0.166504 0.166687 6.41791 0.166687 15.3905V36.6092C0.166687 45.5902 5.97898 51.8332 14.7398 51.8332H37.2603C46.0211 51.8332 51.8334 45.5902 51.8334 36.6092V15.3905C51.8334 6.40952 46.0211 0.166504 37.2603 0.166504ZM14.7398 3.77115H37.2603C43.9704 3.77115 48.2287 8.34501 48.2287 15.3905V36.6092C48.2287 43.6547 43.9704 48.2285 37.2603 48.2285H14.7398C8.02963 48.2285 3.77134 43.6547 3.77134 36.6092V15.3905C3.77134 8.35436 8.04386 3.77115 14.7398 3.77115ZM27.8774 13.5454C27.7581 12.6657 27.004 11.9877 26.0916 11.9877C25.0962 11.9877 24.2892 12.7946 24.2892 13.79V38.164L24.3057 38.4085C24.425 39.2882 25.1791 39.9663 26.0916 39.9663C27.087 39.9663 27.8939 39.1594 27.8939 38.164V13.79L27.8774 13.5454ZM16.663 21.4338C16.5436 20.5541 15.7895 19.876 14.8771 19.876C13.8817 19.876 13.0748 20.683 13.0748 21.6784V38.164L13.0912 38.4085C13.2106 39.2882 13.9647 39.9663 14.8771 39.9663C15.8725 39.9663 16.6794 39.1594 16.6794 38.164V21.6784L16.663 21.4338ZM37.1229 28.5876C38.0354 28.5876 38.7895 29.2656 38.9088 30.1453L38.9253 30.3899V38.164C38.9253 39.1594 38.1183 39.9663 37.1229 39.9663C36.2105 39.9663 35.4564 39.2882 35.3371 38.4085L35.3206 38.164V30.3899C35.3206 29.3945 36.1275 28.5876 37.1229 28.5876Z" fill="#200E32"/>
</svg>
