<svg width="62" height="62" viewBox="0 0 62 62" fill="none" xmlns="http://www.w3.org/2000/svg">
<path fill-rule="evenodd" clip-rule="evenodd" d="M53.6553 19.0097C54.2212 18.2499 54.1584 17.1694 53.4667 16.4809L42.8836 5.94664L42.6659 5.75955C41.9061 5.19851 40.8298 5.26353 40.1436 5.95297L39.9565 6.17071C39.3954 6.93051 39.4605 8.00674 40.1499 8.69301L47.408 15.9163L16.9191 15.9163L16.6562 15.934C15.7105 16.0623 14.9816 16.8729 14.9816 17.8538C14.9816 18.9238 15.8491 19.7913 16.9191 19.7913L47.4077 19.7913L40.1499 27.0152L39.9618 27.232C39.3973 27.9892 39.4573 29.0658 40.1436 29.7552C40.8985 30.5136 42.1252 30.5164 42.8836 29.7615L53.4667 19.2273L53.4783 19.2138C53.5366 19.1547 53.5911 19.0919 53.6414 19.0257L53.6553 19.0097ZM45.3513 45.4221C46.297 45.2938 47.0259 44.4832 47.0259 43.5023C47.0259 42.4322 46.1584 41.5648 45.0884 41.5648L14.6007 41.5648L21.8576 34.3409L22.0457 34.124C22.6102 33.3668 22.5502 32.2903 21.8639 31.6009C21.109 30.8425 19.8823 30.8397 19.1239 31.5945L8.54081 42.1288L8.5292 42.1422C8.47089 42.2014 8.41635 42.2642 8.36597 42.3305L8.35216 42.3464C7.78623 43.1062 7.84911 44.1867 8.54081 44.8752L19.1239 55.4094L19.3416 55.5965C20.1014 56.1576 21.1776 56.0925 21.8639 55.4031C22.6188 54.6447 22.6159 53.418 21.8576 52.6631L14.6031 45.4398L45.0884 45.4398L45.3513 45.4221Z" fill="#200E32"/>
</svg>
