<svg width="42" height="52" viewBox="0 0 42 52" fill="none" xmlns="http://www.w3.org/2000/svg">
<path fill-rule="evenodd" clip-rule="evenodd" d="M21.0111 0.166504C13.4315 0.166504 7.28706 6.33715 7.28706 13.949C7.28706 21.5609 13.4315 27.7316 21.0111 27.7316C28.5906 27.7316 34.7351 21.5609 34.7351 13.949C34.7351 6.33715 28.5906 0.166504 21.0111 0.166504ZM21.0111 3.90632C26.534 3.90632 31.0112 8.40259 31.0112 13.949C31.0112 19.4955 26.534 23.9918 21.0111 23.9918C15.4882 23.9918 11.011 19.4955 11.011 13.949C11.011 8.40259 15.4882 3.90632 21.0111 3.90632ZM15.3943 33.2871C13.3852 33.4266 11.3544 33.7134 9.35121 34.1427C5.48493 34.9391 2.39185 36.5303 1.07535 39.1745C0.5788 40.2086 0.329153 41.3159 0.333365 42.4369C0.331876 43.5498 0.579502 44.6584 1.05824 45.6726C2.32233 48.2864 5.05514 49.7656 8.74527 50.5856L9.40631 50.7235C11.3551 51.1632 13.3865 51.4592 15.4315 51.5982C15.6057 51.6492 16.0208 51.6967 16.4739 51.7199L16.8465 51.7338C17.0382 51.7383 17.2556 51.7394 17.5797 51.7394C20.5191 51.9011 23.5663 51.854 26.5994 51.5958C28.2157 51.4852 29.843 51.2738 31.4566 50.9641L32.6639 50.7134C36.6487 49.9274 39.6325 48.4324 40.9397 45.6756C41.9088 43.6288 41.9088 41.2536 40.9401 39.2078C39.6362 36.4578 36.6904 34.9753 32.6337 34.1397C31.0421 33.7999 29.4248 33.5485 27.7959 33.3879L26.605 33.2871C22.8753 32.9581 19.124 32.9581 15.3943 33.2871ZM26.2792 37.0126L26.312 37.0152C28.1814 37.1468 30.0394 37.4092 31.8724 37.8005C34.8857 38.4212 36.9306 39.4504 37.5775 40.8147C38.0646 41.8435 38.0646 43.0389 37.5771 44.0687C36.9726 45.3435 35.136 46.3284 32.4816 46.9303L31.9004 47.0534C30.0313 47.4704 28.1795 47.7392 26.3154 47.867C23.423 48.113 20.5478 48.1574 17.6798 48.0023L16.663 47.9849C16.3808 47.9705 16.1429 47.9432 15.9224 47.899C14.1767 47.7672 12.6059 47.5587 11.0807 47.2564L10.17 47.0636C7.14742 46.4712 5.08448 45.4376 4.41563 44.0547C4.18158 43.5587 4.05657 42.999 4.05732 42.4323C4.05522 41.8688 4.17859 41.3216 4.41807 40.8227C5.06841 39.5169 7.2546 38.3922 10.114 37.8032C11.9602 37.4076 13.8174 37.1453 15.6859 37.0153C19.2331 36.7027 22.7663 36.7027 26.2792 37.0126Z" fill="#200E32"/>
</svg>
