<svg width="62" height="62" viewBox="0 0 62 62" fill="none" xmlns="http://www.w3.org/2000/svg">
<path fill-rule="evenodd" clip-rule="evenodd" d="M20.0464 16.0524C20.0464 13.2444 17.7336 10.9584 14.8859 10.9584C12.0412 10.9584 9.7254 13.2444 9.7254 16.0524C9.7254 18.8604 12.0412 21.1463 14.8859 21.1463C17.7336 21.1463 20.0464 18.8604 20.0464 16.0524ZM24.6051 16.0524C24.6051 21.3413 20.247 25.6463 14.8859 25.6463C9.52785 25.6463 5.16666 21.3413 5.16666 16.0524C5.16666 10.7634 9.52785 6.4585 14.8859 6.4585C20.247 6.4585 24.6051 10.7634 24.6051 16.0524ZM56.8333 16.053C56.8333 14.811 55.8122 13.803 54.554 13.803H35.8631C34.6049 13.803 33.5837 14.811 33.5837 16.053C33.5837 17.295 34.6049 18.303 35.8631 18.303H54.554C55.8122 18.303 56.8333 17.295 56.8333 16.053ZM41.9527 45.9479C41.9527 48.7559 44.2655 51.0419 47.1132 51.0419C49.9609 51.0419 52.2737 48.7559 52.2737 45.9479C52.2737 43.137 49.9609 40.854 47.1132 40.854C44.2655 40.854 41.9527 43.137 41.9527 45.9479ZM37.3939 45.9479C37.3939 40.656 41.7521 36.354 47.1132 36.354C52.4743 36.354 56.8324 40.656 56.8324 45.9479C56.8324 51.2369 52.4743 55.5418 47.1132 55.5418C41.7521 55.5418 37.3939 51.2369 37.3939 45.9479ZM7.44816 43.6971H26.136C27.3942 43.6971 28.4153 44.7051 28.4153 45.947C28.4153 47.189 27.3942 48.197 26.136 48.197H7.44816C6.18994 48.197 5.16878 47.189 5.16878 45.947C5.16878 44.7051 6.18994 43.6971 7.44816 43.6971Z" fill="#200E32"/>
</svg>
