<svg width="53" height="53" viewBox="0 0 53 53" fill="none" xmlns="http://www.w3.org/2000/svg">
<path fill-rule="evenodd" clip-rule="evenodd" d="M37.8781 0.250488H15.122C6.20333 0.250488 0.251343 6.63605 0.251343 15.78V37.221C0.251343 46.3736 6.18744 52.7505 15.122 52.7505H37.8755C46.8126 52.7505 52.7513 46.3735 52.7513 37.221V15.78C52.7513 6.62794 46.813 0.250488 37.8781 0.250488ZM15.122 4.18799H37.8781C44.5732 4.18799 48.8138 8.74227 48.8138 15.78V37.221C48.8138 44.259 44.5728 48.813 37.8755 48.813H15.122C8.42759 48.813 4.18884 44.2595 4.18884 37.221V15.78C4.18884 8.75121 8.44223 4.18799 15.122 4.18799ZM18.8107 18.7888C19.5097 18.0899 20.6035 18.0265 21.3741 18.5984L21.5949 18.7891L26.4977 23.6929L31.3961 18.7945C32.1649 18.0256 33.4115 18.0256 34.1803 18.7945C34.8793 19.4934 34.9428 20.5872 34.371 21.3579L34.1803 21.5787L29.2816 26.4774L34.1844 31.3812C34.9532 32.1501 34.9531 33.3967 34.1841 34.1655C33.4851 34.8643 32.3914 34.9278 31.6207 34.3558L31.3999 34.1652L26.4974 29.2616L21.6013 34.1577C20.8325 34.9265 19.5859 34.9265 18.8171 34.1577C18.1182 33.4587 18.0546 32.365 18.6265 31.5943L18.8171 31.3735L23.7134 26.4771L18.8104 21.573C18.0416 20.8041 18.0418 19.5576 18.8107 18.7888Z" fill="#200E32"/>
</svg>
