<svg width="52" height="52" viewBox="0 0 52 52" fill="none" xmlns="http://www.w3.org/2000/svg">
<path fill-rule="evenodd" clip-rule="evenodd" d="M51.0702 6.86107C51.8751 3.22978 48.4982 -0.0469164 44.842 1.01121L4.39595 12.7802L4.00563 12.91C0.209189 14.3387 -0.373306 19.6261 3.18257 21.8152L19.911 32.112L29.9751 48.785L30.2012 49.1293C32.5604 52.4346 37.7846 51.634 38.9757 47.6273L50.9756 7.22524L51.0702 6.86107ZM46.1103 4.69543C46.8563 4.61533 47.4938 5.34098 47.2615 6.12015L35.2612 46.5236L35.1825 46.7217C34.8074 47.4592 33.7462 47.5342 33.2927 46.7828L23.7654 31.0011L37.3343 17.3448L37.5212 17.1269C38.0815 16.3665 38.0153 15.2903 37.3252 14.6048L37.1073 14.4179C36.3469 13.8576 35.2707 13.9237 34.5852 14.6139L21.0348 28.2525L5.21384 18.5153L5.04303 18.387C4.42863 17.8273 4.63544 16.7456 5.47733 16.5012L45.9219 4.73268L46.1103 4.69543Z" fill="#200E32"/>
</svg>
