<svg width="61" height="61" viewBox="0 0 61 61" fill="none" xmlns="http://www.w3.org/2000/svg">
<path fill-rule="evenodd" clip-rule="evenodd" d="M52.8835 19.3766L51.3016 16.6314C49.9632 14.3085 46.9972 13.5072 44.6711 14.84V14.84C43.5639 15.4923 42.2427 15.6773 40.9988 15.3544C39.755 15.0314 38.6907 14.227 38.0407 13.1184C37.6225 12.4138 37.3978 11.6113 37.3893 10.7919V10.7919C37.427 9.47837 36.9314 8.20545 36.0154 7.26317C35.0995 6.32089 33.8411 5.7895 32.527 5.79004H29.3397C28.0523 5.79002 26.8179 6.30304 25.9097 7.21558C25.0015 8.12812 24.4944 9.36494 24.5006 10.6524V10.6524C24.4625 13.3104 22.2967 15.4452 19.6383 15.4449C18.819 15.4364 18.0165 15.2117 17.3118 14.7935V14.7935C14.9858 13.4606 12.0198 14.262 10.6814 16.5849L8.98309 19.3766C7.64634 21.6966 8.43677 24.6607 10.7512 26.0071V26.0071C12.2556 26.8756 13.1824 28.4808 13.1824 30.218C13.1824 31.9551 12.2556 33.5603 10.7512 34.4289V34.4289C8.43971 35.7661 7.64841 38.7231 8.98309 41.036V41.036L10.5884 43.8045C11.2154 44.936 12.2676 45.771 13.512 46.1247C14.7563 46.4783 16.0903 46.3215 17.2188 45.689V45.689C18.3281 45.0417 19.6501 44.8643 20.8908 45.1963C22.1315 45.5284 23.1882 46.3423 23.826 47.4571C24.2441 48.1617 24.4689 48.9642 24.4774 49.7836V49.7836C24.4774 52.4689 26.6543 54.6459 29.3397 54.6459H32.527C35.2033 54.6459 37.3765 52.4831 37.3893 49.8068V49.8068C37.383 48.5154 37.8933 47.275 38.8065 46.3618C39.7198 45.4486 40.9601 44.9383 42.2516 44.9445C43.0689 44.9664 43.8682 45.1902 44.5781 45.5959V45.5959C46.898 46.9327 49.8622 46.1422 51.2085 43.8278V43.8278L52.8835 41.036C53.5319 39.9232 53.7099 38.5977 53.378 37.3532C53.0461 36.1087 52.2318 35.0479 51.1154 34.4056V34.4056C49.999 33.7633 49.1847 32.7025 48.8529 31.458C48.521 30.2135 48.6989 28.8881 49.3473 27.7752C49.7689 27.039 50.3793 26.4287 51.1154 26.0071V26.0071C53.416 24.6614 54.2046 21.7146 52.8835 19.3999V19.3999V19.3766Z" stroke="#200E32" stroke-width="3.5" stroke-linecap="round" stroke-linejoin="round"/>
<circle cx="30.945" cy="30.2178" r="6.70023" stroke="#200E32" stroke-width="3.5" stroke-linecap="round" stroke-linejoin="round"/>
</svg>
