<svg width="61" height="61" viewBox="0 0 61 61" fill="none" xmlns="http://www.w3.org/2000/svg">
<path fill-rule="evenodd" clip-rule="evenodd" d="M13.7782 52.6123C14.4492 53.8654 15.7581 54.6482 17.1815 54.6457C17.7813 54.6482 18.376 54.5084 18.9098 54.239L30.4795 48.1898C30.51 48.172 30.5455 48.1619 30.5811 48.1644L42.072 54.1628C42.6286 54.4627 43.2513 54.6177 43.8817 54.6152C44.0825 54.6152 44.2858 54.5974 44.484 54.5694C46.553 54.2314 47.9661 52.2946 47.6611 50.2232L45.4245 37.4894C45.4115 37.4709 45.408 37.4699 45.407 37.4678C45.4067 37.467 45.4067 37.4661 45.4067 37.464C45.4067 37.4564 45.4245 37.4386 45.4245 37.4386L54.7524 28.4157C56.13 27.0864 56.3053 24.9438 55.159 23.4086C54.5363 22.6054 53.6239 22.0768 52.6174 21.9344L39.7515 20.079C39.7286 20.079 39.7032 20.0536 39.6778 20.0282L33.931 8.489C33.2829 7.18513 31.9562 6.36163 30.4998 6.354C30.0779 6.354 29.656 6.42009 29.2544 6.55734C28.2911 6.88521 27.4955 7.57655 27.0431 8.489L21.304 19.9951C21.304 20.0485 21.2507 20.0714 21.1998 20.0714L8.36442 21.9268C7.57905 22.059 6.84705 22.4097 6.25484 22.9435C5.50505 23.678 5.08313 24.687 5.08313 25.7393C5.08567 26.7382 5.48725 27.6938 6.20146 28.3903L15.6056 37.4386C15.626 37.4589 15.6336 37.4869 15.6336 37.5148L13.369 50.1978C13.2343 51.0263 13.3791 51.8753 13.7782 52.6123ZM30.4261 10.0826L30.4515 10.0648H30.4998L30.5227 10.0877C30.5455 10.0877 30.5659 10.0928 30.5837 10.108C30.5989 10.1233 30.6065 10.1436 30.604 10.1665L36.3482 21.6523C36.8997 22.7833 37.9723 23.5713 39.2177 23.7619L52.0836 25.6325C52.1065 25.6325 52.1294 25.6376 52.1497 25.6478C52.1624 25.6503 52.1726 25.6503 52.1853 25.6478L52.2107 25.6707L52.1853 25.7266L42.8574 34.7724C41.9297 35.6416 41.5154 36.9277 41.7619 38.1757L44.0011 50.8357L43.9503 50.884H43.8969C43.8868 50.8891 43.8766 50.8891 43.8664 50.884C43.841 50.8815 43.8156 50.8713 43.7927 50.8586H43.7698L32.3323 44.8857C31.7833 44.601 31.1733 44.4485 30.5532 44.451C29.9152 44.451 29.2849 44.6112 28.7206 44.9111L17.2094 50.9475C17.1967 50.9501 17.1815 50.9501 17.1688 50.9475C17.1154 50.9475 17.0696 50.912 17.0569 50.8611V50.8103L19.2936 38.1528C19.502 36.915 19.0953 35.6518 18.2007 34.7724L8.7965 25.7495C8.79396 25.7113 8.79905 25.6783 8.81938 25.6453L8.97442 25.5944L21.759 23.7619C23.0044 23.5687 24.0745 22.7833 24.6285 21.6523L30.3753 10.1385C30.388 10.1157 30.4032 10.0953 30.4261 10.0826Z" fill="#200E32"/>
</svg>
