<svg width="49" height="52" viewBox="0 0 49 52" fill="none" xmlns="http://www.w3.org/2000/svg">
<path fill-rule="evenodd" clip-rule="evenodd" d="M48.5251 11.1167C48.2442 5.05244 43.2401 0.223633 37.1063 0.223633H24.4893L23.9498 0.236097C17.8712 0.517578 13.0322 5.53131 13.0322 11.6781V14.0884L13.0499 14.3513C13.1782 15.297 13.9888 16.0259 14.9697 16.0259C16.0398 16.0259 16.9072 15.1584 16.9072 14.0884V11.6781L16.9201 11.2326C17.1506 7.25281 20.4496 4.09863 24.4893 4.09863H37.1063L37.5504 4.11146C41.5177 4.34122 44.6625 7.62984 44.6625 11.6549V40.4332L44.6497 40.8787C44.419 44.8584 41.1179 48.0153 37.0805 48.0153H24.4609L24.0171 48.0025C20.0527 47.7726 16.9072 44.4822 16.9072 40.4591V38.0256L16.8895 37.7626C16.7612 36.8169 15.9506 36.0881 14.9697 36.0881C13.8996 36.0881 13.0322 36.9555 13.0322 38.0256V40.4591L13.0454 41.0128C13.3343 47.0677 18.3352 51.8903 24.4609 51.8903H37.0805L37.6198 51.8778C43.6965 51.5962 48.5375 46.5796 48.5375 40.4332V11.6549L48.5251 11.1167ZM24.9129 17.1562C25.5993 16.467 26.6756 16.4022 27.4352 16.9635L27.6529 17.1506L35.2169 24.6836C35.9082 25.3721 35.9711 26.4521 35.4055 27.2117L35.3985 27.2198C35.3444 27.2917 35.2854 27.3598 35.222 27.4235L35.2169 27.4293L27.6529 34.9623C26.8947 35.7174 25.668 35.7148 24.9129 34.9566C24.2265 34.2674 24.1661 33.1909 24.7305 32.4335L24.9185 32.2166L29.1572 27.9939H2.74304C1.67299 27.9939 0.805542 27.1265 0.805542 26.0564C0.805542 25.0756 1.53444 24.2649 2.48013 24.1366L2.74304 24.1189H29.1565L24.9185 19.8963C24.2293 19.2098 24.1645 18.1336 24.7258 17.3739L24.9129 17.1562Z" fill="#200E32"/>
</svg>
