<svg width="66" height="66" viewBox="0 0 66 66" fill="none" xmlns="http://www.w3.org/2000/svg">
<path fill-rule="evenodd" clip-rule="evenodd" d="M24.4794 18.6144C25.6563 18.3421 26.8606 18.9443 27.349 20.0491C27.4769 20.309 27.5538 20.591 27.5755 20.8798C27.8272 24.4542 28.3558 32.2825 28.6579 36.5114C28.7095 37.2731 29.0625 37.9829 29.6388 38.4837C30.2152 38.9845 30.9673 39.2349 31.7288 39.1796V39.1796L47.2597 38.2231C47.9531 38.1814 48.6328 38.4281 49.1381 38.9047C49.6433 39.3814 49.9292 40.0456 49.9279 40.7402V40.7402C49.2985 50.1187 42.5604 57.9591 33.3831 59.9914C24.2058 62.0236 14.7875 57.7611 10.2574 49.5251C8.90511 47.1547 8.04872 44.5341 7.74026 41.8226C7.6084 40.9904 7.55782 40.1474 7.58923 39.3054C7.61595 29.2899 14.6499 20.6602 24.4542 18.6144" fill="white"/>
<path d="M24.4794 18.6144C25.6563 18.3421 26.8606 18.9443 27.349 20.0491C27.4769 20.309 27.5538 20.591 27.5755 20.8798C27.8272 24.4542 28.3558 32.2825 28.6579 36.5114C28.7095 37.2731 29.0625 37.9829 29.6388 38.4837C30.2152 38.9845 30.9673 39.2349 31.7288 39.1796V39.1796L47.2597 38.2231C47.9531 38.1814 48.6328 38.4281 49.1381 38.9047C49.6433 39.3814 49.9292 40.0456 49.9279 40.7402V40.7402C49.2985 50.1187 42.5604 57.9591 33.3831 59.9914C24.2058 62.0236 14.7875 57.7611 10.2574 49.5251C8.90511 47.1547 8.04872 44.5341 7.74026 41.8226C7.6084 40.9904 7.55782 40.1474 7.58923 39.3054C7.61595 29.2899 14.6499 20.6602 24.4542 18.6144" stroke="#200E32" stroke-width="3.5" stroke-linecap="round" stroke-linejoin="round"/>
</svg>
