<svg width="44" height="52" viewBox="0 0 44 52" fill="none" xmlns="http://www.w3.org/2000/svg">
<path fill-rule="evenodd" clip-rule="evenodd" d="M3.24952 6.28914L20.4121 0.429202C21.4413 0.0787974 22.5632 0.0787974 23.5904 0.430045L40.7484 6.28841C42.6719 6.94275 43.9584 8.70557 43.9584 10.6858V27.8434C43.9584 33.0606 42.0164 38.0885 38.518 42.0084C36.8641 43.8595 34.7616 45.4014 32.2217 46.736L22.945 51.6049C22.3654 51.9091 21.667 51.9093 21.0871 51.6053L11.7949 46.7339C9.24542 45.3975 7.1423 43.858 5.49025 42.0063C1.98669 38.0871 0.041687 33.0561 0.041687 27.8333V10.6858C0.041687 8.70557 1.3281 6.94275 3.24952 6.28914ZM39.4539 9.87408L22.2921 4.01441C22.1043 3.95021 21.8965 3.95021 21.7071 4.0147L4.54399 9.87481C4.18922 9.99549 3.95258 10.3198 3.95258 10.6858V27.8333C3.95258 32.1382 5.55572 36.2848 8.44414 39.5159C9.75793 40.9885 11.4905 42.2568 13.6519 43.3898L22.0128 47.7729L30.3621 43.3932C32.2456 42.4035 33.8084 41.3063 35.051 40.0611L35.5639 39.5182C38.4467 36.2882 40.0475 32.1436 40.0475 27.8434V10.6858C40.0475 10.3198 39.8108 9.99549 39.4539 9.87408ZM15.7183 19.3147C16.4125 18.6402 17.4988 18.5788 18.2644 19.1307L18.4837 19.3147L22.0003 22.7314L25.5169 19.3147C26.2805 18.5727 27.5186 18.5727 28.2823 19.3147C28.9765 19.9892 29.0396 21.0447 28.4716 21.7885L28.2823 22.0016L24.7657 25.4183L28.2818 28.8346C29.0454 29.5765 29.0454 30.7795 28.2818 31.5215C27.5875 32.196 26.5012 32.2573 25.7357 31.7054L25.5164 31.5215L22.0003 28.1052L18.4842 31.5215C17.7206 32.2635 16.4824 32.2635 15.7188 31.5215C15.0246 30.847 14.9615 29.7915 15.5295 29.0477L15.7188 28.8346L19.2349 25.4183L15.7183 22.0016C14.9546 21.2596 14.9546 20.0566 15.7183 19.3147Z" fill="#200E32"/>
</svg>
