<svg width="111" height="111" viewBox="0 0 111 111" fill="none" xmlns="http://www.w3.org/2000/svg">
<path fill-rule="evenodd" clip-rule="evenodd" d="M45.683 70.3286C27.9045 70.3286 12.7206 73.0157 12.7206 83.7827C12.7206 94.5451 27.8073 97.334 45.683 97.334C63.4615 97.334 78.6453 94.6422 78.6453 83.8799C78.6453 73.1175 63.5586 70.3286 45.683 70.3286Z" stroke="#40D07A" stroke-width="6.5" stroke-linecap="round" stroke-linejoin="round"/>
<path fill-rule="evenodd" clip-rule="evenodd" d="M45.6829 54.9723C57.4119 54.9723 66.8099 45.5696 66.8099 33.8453C66.8099 22.1163 57.4119 12.7183 45.6829 12.7183C33.9585 12.7183 24.5559 22.1163 24.5559 33.8453C24.5559 45.5696 33.9585 54.9723 45.6829 54.9723Z" stroke="#40D07A" stroke-width="6.5" stroke-linecap="round" stroke-linejoin="round"/>
<path d="M88.819 40.0947V58.641" stroke="#40D07A" stroke-width="6.5" stroke-linecap="round" stroke-linejoin="round"/>
<path d="M98.2812 49.3672H79.365" stroke="#40D07A" stroke-width="6.5" stroke-linecap="round" stroke-linejoin="round"/>
</svg>
