<svg width="98" height="98" viewBox="0 0 98 98" fill="none" xmlns="http://www.w3.org/2000/svg">
<path fill-rule="evenodd" clip-rule="evenodd" d="M40.2812 11.7914C44.8805 7.17116 52.2404 6.96775 56.9678 11.0923L57.7123 11.7864L60.6472 14.7213C61.6553 15.7247 62.9776 16.3433 64.3842 16.4823L64.9916 16.5122H69.1892C75.7381 16.5122 81.0932 21.6334 81.4674 28.0887L81.4882 28.8112V33.0048C81.4882 34.4331 81.9807 35.8063 82.8692 36.8981L83.274 37.3481L86.2091 40.2832C90.8294 44.8827 91.0359 52.238 86.803 57.0852L86.2507 57.6776L83.2766 60.6518C82.2762 61.6545 81.6573 62.9778 81.5182 64.383L81.4882 64.9895V69.1913C81.4882 75.7399 76.3674 81.0914 69.9118 81.4653L69.1892 81.4862H64.9916C63.5684 81.4862 62.1935 81.9808 61.101 82.8718L60.6508 83.2776L57.7197 86.2046C53.1251 90.8305 45.7645 91.0357 40.9155 86.8012L40.2861 86.212L37.3578 83.2837C36.3436 82.2766 35.0188 81.6557 33.6161 81.5162L33.0109 81.4862H28.8091C22.263 81.4862 16.9092 76.3677 16.5351 69.9137L16.5142 69.1913V64.9895C16.5142 63.5686 16.0189 62.1924 15.1284 61.102L14.7229 60.6529L11.7946 57.7205C7.16992 53.1219 6.96478 45.7612 11.1993 40.9169L11.7517 40.3249L14.7167 37.3558C15.7251 36.3403 16.345 35.018 16.4843 33.6119L16.5142 33.0048V28.8112L16.5351 28.0887C16.8953 21.8732 21.8736 16.8934 28.0869 16.5331L28.8091 16.5122H33.0109C34.4339 16.5122 35.809 16.0186 36.8994 15.1318L37.3486 14.728L40.2812 11.7914ZM53.5122 16.2409L53.3495 16.0897C51.0862 13.8367 47.5097 13.7048 45.087 15.6906L44.6186 16.116L41.6735 19.0652C39.5614 21.1623 36.7679 22.4162 33.8187 22.6106L33.0109 22.6372H28.8091C25.5933 22.6372 22.9484 25.1042 22.6645 28.2495L22.6392 28.8112V33.0048C22.6392 35.9822 21.5587 38.8452 19.6098 41.0832L19.0569 41.6776L16.0876 44.651C13.8344 46.9145 13.7032 50.4901 15.6945 52.9158L16.121 53.3849L19.058 56.3259C21.1585 58.4314 22.4173 61.2298 22.6125 64.1812L22.6392 64.9895V69.1913C22.6392 72.4091 25.1044 75.0522 28.2478 75.336L28.8091 75.3612H33.0109C35.9827 75.3612 38.8482 76.4429 41.0866 78.3921L41.6812 78.945L44.6347 81.8986C46.9141 84.1652 50.4907 84.2972 52.9142 82.306L53.3828 81.8794L56.3264 78.9399C58.4364 76.84 61.2311 75.5828 64.183 75.3879L64.9916 75.3612H69.1892C72.4097 75.3612 75.0541 72.8972 75.338 69.7529L75.3632 69.1913V64.9895C75.3632 62.0134 76.4445 59.1428 78.3908 56.9147L78.943 56.3234L81.9136 53.3527C84.1669 51.0867 84.2973 47.5128 82.3089 45.088L81.883 44.6191L78.9353 41.6714C76.8368 39.558 75.584 36.7673 75.3898 33.8139L75.3632 33.0048V28.8112C75.3632 25.5919 72.8967 22.9465 69.751 22.6625L69.1892 22.6372H64.9916C62.0141 22.6372 59.1474 21.5576 56.9142 19.61L56.3213 19.0575L53.5122 16.2409ZM61.6597 36.3383C60.4637 35.1423 58.5246 35.1423 57.3287 36.3383L36.3403 57.3266L36.0438 57.6701C35.1542 58.869 35.2531 60.5704 36.3403 61.6577C37.5363 62.8537 39.4754 62.8537 40.6714 61.6577L61.6597 40.6693L61.9562 40.3259C62.8458 39.1269 62.7469 37.4256 61.6597 36.3383Z" fill="#DD1B1B"/>
<path d="M61.7231 57.3926C62.9191 58.5886 62.9191 60.5277 61.7231 61.7237C60.6359 62.8109 58.9345 62.9098 57.7356 62.0202L57.3921 61.7237L36.4038 40.7353C35.2078 39.5394 35.2078 37.6003 36.4038 36.4043C37.491 35.3171 39.1924 35.2182 40.3913 36.1078L40.7348 36.4043L61.7231 57.3926Z" fill="#DD1B1B"/>
</svg>
