<svg width="51" height="49" viewBox="0 0 51 49" fill="none" xmlns="http://www.w3.org/2000/svg">
<path fill-rule="evenodd" clip-rule="evenodd" d="M8.77817 46.6123C9.44917 47.8654 10.7581 48.6482 12.1815 48.6457C12.7813 48.6482 13.376 48.5084 13.9098 48.239L25.4795 42.1898C25.51 42.172 25.5455 42.1619 25.5811 42.1644L37.072 48.1628C37.6286 48.4627 38.2513 48.6177 38.8817 48.6152C39.0825 48.6152 39.2858 48.5974 39.484 48.5694C41.553 48.2314 42.9661 46.2946 42.6611 44.2232L40.4245 31.4894C40.4115 31.4709 40.408 31.4699 40.407 31.4678C40.4067 31.467 40.4067 31.4661 40.4067 31.464C40.4067 31.4564 40.4245 31.4386 40.4245 31.4386L49.7524 22.4157C51.13 21.0864 51.3053 18.9438 50.159 17.4086C49.5363 16.6054 48.6239 16.0768 47.6174 15.9344L34.7515 14.079C34.7286 14.079 34.7032 14.0536 34.6778 14.0282L28.931 2.489C28.2829 1.18513 26.9562 0.361629 25.4998 0.354004C25.0779 0.354004 24.656 0.420087 24.2544 0.557337C23.2911 0.885212 22.4955 1.57655 22.0431 2.489L16.304 13.9951C16.304 14.0485 16.2507 14.0714 16.1998 14.0714L3.36442 15.9268C2.57905 16.059 1.84705 16.4097 1.25484 16.9435C0.505047 17.678 0.0831299 18.687 0.0831299 19.7393C0.0856715 20.7382 0.487255 21.6938 1.20146 22.3903L10.6056 31.4386C10.626 31.4589 10.6336 31.4869 10.6336 31.5148L8.36896 44.1978C8.23425 45.0263 8.37913 45.8753 8.77817 46.6123ZM25.4261 4.08263L25.4515 4.06484H25.4998L25.5227 4.08771C25.5455 4.08771 25.5659 4.0928 25.5837 4.10805C25.5989 4.1233 25.6065 4.14363 25.604 4.1665L31.3482 15.6523C31.8997 16.7833 32.9723 17.5713 34.2177 17.7619L47.0836 19.6325C47.1065 19.6325 47.1294 19.6376 47.1497 19.6478C47.1624 19.6503 47.1726 19.6503 47.1853 19.6478L47.2107 19.6707L47.1853 19.7266L37.8574 28.7724C36.9297 29.6416 36.5154 30.9277 36.7619 32.1757L39.0011 44.8357L38.9503 44.884H38.8969C38.8868 44.8891 38.8766 44.8891 38.8664 44.884C38.841 44.8815 38.8156 44.8713 38.7927 44.8586H38.7698L27.3323 38.8857C26.7833 38.601 26.1733 38.4485 25.5532 38.451C24.9152 38.451 24.2849 38.6112 23.7206 38.9111L12.2094 44.9475C12.1967 44.9501 12.1815 44.9501 12.1688 44.9475C12.1154 44.9475 12.0696 44.912 12.0569 44.8611V44.8103L14.2936 32.1528C14.502 30.915 14.0953 29.6518 13.2007 28.7724L3.7965 19.7495C3.79396 19.7113 3.79905 19.6783 3.81938 19.6453L3.97442 19.5944L16.759 17.7619C18.0044 17.5687 19.0745 16.7833 19.6285 15.6523L25.3753 4.13855C25.388 4.11567 25.4032 4.09534 25.4261 4.08263Z" fill="#E98510"/>
</svg>
