<svg width="62" height="62" viewBox="0 0 62 62" fill="none" xmlns="http://www.w3.org/2000/svg">
<path fill-rule="evenodd" clip-rule="evenodd" d="M55.5251 16.1167C55.2442 10.0524 50.2401 5.22363 44.1063 5.22363H31.4893L30.9498 5.2361C24.8712 5.51758 20.0322 10.5313 20.0322 16.6781V19.0884L20.0499 19.3513C20.1782 20.297 20.9888 21.0259 21.9697 21.0259C23.0398 21.0259 23.9072 20.1584 23.9072 19.0884V16.6781L23.9201 16.2326C24.1506 12.2528 27.4496 9.09863 31.4893 9.09863H44.1063L44.5504 9.11146C48.5177 9.34122 51.6625 12.6298 51.6625 16.6549V45.4332L51.6497 45.8787C51.419 49.8584 48.1179 53.0153 44.0805 53.0153H31.4609L31.0171 53.0025C27.0527 52.7726 23.9072 49.4822 23.9072 45.4591V43.0256L23.8895 42.7626C23.7612 41.8169 22.9506 41.0881 21.9697 41.0881C20.8996 41.0881 20.0322 41.9555 20.0322 43.0256V45.4591L20.0454 46.0128C20.3343 52.0677 25.3352 56.8903 31.4609 56.8903H44.0805L44.6198 56.8778C50.6965 56.5962 55.5375 51.5796 55.5375 45.4332V16.6549L55.5251 16.1167ZM31.9129 22.1562C32.5993 21.467 33.6756 21.4022 34.4352 21.9635L34.6529 22.1506L42.2169 29.6836C42.9082 30.3721 42.9711 31.4521 42.4055 32.2117L42.3985 32.2198C42.3444 32.2917 42.2854 32.3598 42.222 32.4235L42.2169 32.4293L34.6529 39.9623C33.8947 40.7174 32.668 40.7148 31.9129 39.9566C31.2265 39.2674 31.1661 38.1909 31.7305 37.4335L31.9185 37.2166L36.1572 32.9939H9.74304C8.67299 32.9939 7.80554 32.1265 7.80554 31.0564C7.80554 30.0756 8.53444 29.2649 9.48013 29.1366L9.74304 29.1189H36.1565L31.9185 24.8963C31.2293 24.2098 31.1645 23.1336 31.7258 22.3739L31.9129 22.1562Z" fill="#BE2C2C"/>
</svg>
