<svg width="63" height="63" viewBox="0 0 63 63" fill="none" xmlns="http://www.w3.org/2000/svg">
<path fill-rule="evenodd" clip-rule="evenodd" d="M42.8781 5.25049H20.122C11.2033 5.25049 5.25134 11.6361 5.25134 20.78V42.221C5.25134 51.3736 11.1874 57.7505 20.122 57.7505H42.8755C51.8126 57.7505 57.7513 51.3735 57.7513 42.221V20.78C57.7513 11.6279 51.813 5.25049 42.8781 5.25049ZM20.122 9.18799H42.8781C49.5732 9.18799 53.8138 13.7423 53.8138 20.78V42.221C53.8138 49.259 49.5728 53.813 42.8755 53.813H20.122C13.4276 53.813 9.18884 49.2595 9.18884 42.221V20.78C9.18884 13.7512 13.4422 9.18799 20.122 9.18799ZM23.8107 23.7888C24.5097 23.0899 25.6035 23.0265 26.3741 23.5984L26.5949 23.7891L31.4977 28.6929L36.3961 23.7945C37.1649 23.0256 38.4115 23.0256 39.1803 23.7945C39.8793 24.4934 39.9428 25.5872 39.371 26.3579L39.1803 26.5787L34.2816 31.4774L39.1844 36.3812C39.9532 37.1501 39.9531 38.3967 39.1841 39.1655C38.4851 39.8643 37.3914 39.9278 36.6207 39.3558L36.3999 39.1652L31.4974 34.2616L26.6013 39.1577C25.8325 39.9265 24.5859 39.9265 23.8171 39.1577C23.1182 38.4587 23.0546 37.365 23.6265 36.5943L23.8171 36.3735L28.7134 31.4771L23.8104 26.573C23.0416 25.8041 23.0418 24.5576 23.8107 23.7888Z" fill="#C560AE"/>
</svg>
