<svg width="61" height="61" viewBox="0 0 61 61" fill="none" xmlns="http://www.w3.org/2000/svg">
<path fill-rule="evenodd" clip-rule="evenodd" d="M54.7069 24.7887C53.0825 14.7913 44.5909 7.35374 34.4666 7.06096C33.9853 7.04209 33.5161 7.2154 33.1627 7.5427C32.8092 7.87 32.6003 8.32442 32.5822 8.80582V8.80582V8.96867L33.7222 26.0217C33.7969 27.1696 34.7838 28.0423 35.9323 27.9759L53.0318 26.8359C53.5137 26.8003 53.9614 26.574 54.2758 26.2072C54.5902 25.8404 54.7454 25.3633 54.7069 24.8817V24.7887Z" fill="#F17878" stroke="#200E32" stroke-width="3.5" stroke-linecap="round" stroke-linejoin="round"/>
<path fill-rule="evenodd" clip-rule="evenodd" d="M22.6249 17.2042C23.7126 16.9526 24.8257 17.5091 25.2771 18.5302C25.3953 18.7704 25.4664 19.031 25.4865 19.298C25.7191 22.6016 26.2077 29.8369 26.4868 33.7453C26.5345 34.4494 26.8608 35.1054 27.3935 35.5683C27.9262 36.0311 28.6213 36.2625 29.3251 36.2114V36.2114L43.6794 35.3273C44.3203 35.2888 44.9485 35.5168 45.4155 35.9574C45.8825 36.3979 46.1467 37.0118 46.1455 37.6538V37.6538C45.5638 46.3218 39.3361 53.5682 30.8541 55.4465C22.372 57.3249 13.6672 53.3852 9.48036 45.7732C8.23049 43.5823 7.43898 41.1603 7.15389 38.6542C7.03201 37.8851 6.98526 37.1059 7.0143 36.3277C7.03899 27.071 13.5401 19.0951 22.6016 17.2042" fill="#F17878"/>
<path d="M22.6249 17.2042C23.7126 16.9526 24.8257 17.5091 25.2771 18.5302C25.3953 18.7704 25.4664 19.031 25.4865 19.298C25.7191 22.6016 26.2077 29.8369 26.4868 33.7453C26.5345 34.4494 26.8608 35.1054 27.3935 35.5683C27.9262 36.0311 28.6213 36.2625 29.3251 36.2114V36.2114L43.6794 35.3273C44.3203 35.2888 44.9485 35.5168 45.4155 35.9574C45.8825 36.3979 46.1467 37.0118 46.1455 37.6538V37.6538C45.5638 46.3218 39.3361 53.5682 30.8541 55.4465C22.372 57.3249 13.6672 53.3852 9.48036 45.7732C8.23049 43.5823 7.43898 41.1603 7.15389 38.6542C7.03201 37.8851 6.98526 37.1059 7.0143 36.3277C7.03899 27.071 13.5401 19.0951 22.6016 17.2042" stroke="#200E32" stroke-width="3.5" stroke-linecap="round" stroke-linejoin="round"/>
</svg>
