<svg width="52" height="52" viewBox="0 0 52 52" fill="none" xmlns="http://www.w3.org/2000/svg">
<path fill-rule="evenodd" clip-rule="evenodd" d="M37.2602 0.166504H14.7397C5.99427 0.166504 0.166626 6.41791 0.166626 15.3905V36.6092C0.166626 45.5902 5.97891 51.8332 14.7397 51.8332H37.2602C46.021 51.8332 51.8333 45.5902 51.8333 36.6092V15.3905C51.8333 6.40952 46.021 0.166504 37.2602 0.166504ZM14.7397 3.77115H37.2602C43.9704 3.77115 48.2286 8.34501 48.2286 15.3905V36.6092C48.2286 43.6547 43.9704 48.2285 37.2602 48.2285H14.7397C8.02957 48.2285 3.77128 43.6547 3.77128 36.6092V15.3905C3.77128 8.35436 8.0438 3.77115 14.7397 3.77115ZM27.8774 13.5454C27.758 12.6657 27.004 11.9877 26.0915 11.9877C25.0961 11.9877 24.2892 12.7946 24.2892 13.79V38.164L24.3056 38.4085C24.425 39.2882 25.1791 39.9663 26.0915 39.9663C27.0869 39.9663 27.8938 39.1594 27.8938 38.164V13.79L27.8774 13.5454ZM16.6629 21.4338C16.5436 20.5541 15.7895 19.876 14.877 19.876C13.8816 19.876 13.0747 20.683 13.0747 21.6784V38.164L13.0912 38.4085C13.2105 39.2882 13.9646 39.9663 14.877 39.9663C15.8724 39.9663 16.6794 39.1594 16.6794 38.164V21.6784L16.6629 21.4338ZM37.1229 28.5876C38.0353 28.5876 38.7894 29.2656 38.9088 30.1453L38.9252 30.3899V38.164C38.9252 39.1594 38.1183 39.9663 37.1229 39.9663C36.2104 39.9663 35.4564 39.2882 35.337 38.4085L35.3206 38.164V30.3899C35.3206 29.3945 36.1275 28.5876 37.1229 28.5876Z" fill="#A4AF1F"/>
</svg>
