<svg width="61" height="61" viewBox="0 0 61 61" fill="none" xmlns="http://www.w3.org/2000/svg">
<path fill-rule="evenodd" clip-rule="evenodd" d="M17.5067 8.896H41.4693C44.9244 8.93475 48.213 10.3954 50.569 12.9378C52.9251 15.4801 54.143 18.8823 53.9392 22.3519V38.9436C54.143 42.4132 52.9251 45.8153 50.569 48.3577C48.213 50.9001 44.9244 52.3607 41.4693 52.3994H17.5067C10.0853 52.3994 5.08337 46.3619 5.08337 38.9436V22.3519C5.08337 14.9336 10.0853 8.896 17.5067 8.896Z" fill="white" stroke="#8342C4" stroke-width="3.5" stroke-linecap="round" stroke-linejoin="round"/>
<path d="M38.9672 21H20.2794C19.0212 21 18 22.008 18 23.25C18 24.492 19.0212 25.4999 20.2794 25.4999H38.9672C40.2254 25.4999 41.2466 24.492 41.2466 23.25C41.2466 22.008 40.2254 21 38.9672 21Z" fill="#8342C3"/>
</svg>
