<svg width="50" height="53" viewBox="0 0 50 53" fill="none" xmlns="http://www.w3.org/2000/svg">
<path fill-rule="evenodd" clip-rule="evenodd" d="M46.8835 15.3766L45.3016 12.6314C43.9632 10.3085 40.9972 9.50716 38.6711 10.84V10.84C37.5639 11.4923 36.2427 11.6773 34.9988 11.3544C33.755 11.0314 32.6907 10.227 32.0407 9.11841C31.6225 8.41381 31.3978 7.61126 31.3893 6.79195V6.79195C31.427 5.47837 30.9314 4.20545 30.0154 3.26317C29.0995 2.32089 27.8411 1.7895 26.527 1.79004H23.3397C22.0523 1.79002 20.8179 2.30304 19.9097 3.21558C19.0015 4.12812 18.4944 5.36494 18.5006 6.65236V6.65236C18.4625 9.31045 16.2967 11.4452 13.6383 11.4449C12.819 11.4364 12.0165 11.2117 11.3118 10.7935V10.7935C8.98578 9.46063 6.01979 10.262 4.68141 12.5849L2.98309 15.3766C1.64634 17.6966 2.43677 20.6607 4.75121 22.0071V22.0071C6.25563 22.8756 7.18239 24.4808 7.18239 26.218C7.18239 27.9551 6.25563 29.5603 4.75121 30.4289V30.4289C2.43971 31.7661 1.64841 34.7231 2.98309 37.036V37.036L4.58835 39.8045C5.21544 40.936 6.26758 41.771 7.51195 42.1247C8.75633 42.4783 10.0903 42.3215 11.2188 41.689V41.689C12.3281 41.0417 13.6501 40.8643 14.8908 41.1963C16.1315 41.5284 17.1882 42.3423 17.826 43.4571C18.2441 44.1617 18.4689 44.9642 18.4774 45.7836V45.7836C18.4774 48.4689 20.6543 50.6459 23.3397 50.6459H26.527C29.2033 50.6459 31.3765 48.4831 31.3893 45.8068V45.8068C31.383 44.5154 31.8933 43.275 32.8065 42.3618C33.7198 41.4486 34.9601 40.9383 36.2516 40.9445C37.0689 40.9664 37.8682 41.1902 38.5781 41.5959V41.5959C40.898 42.9327 43.8622 42.1422 45.2085 39.8278V39.8278L46.8835 37.036C47.5319 35.9232 47.7099 34.5977 47.378 33.3532C47.0461 32.1087 46.2318 31.0479 45.1154 30.4056V30.4056C43.999 29.7633 43.1847 28.7025 42.8529 27.458C42.521 26.2135 42.6989 24.8881 43.3473 23.7752C43.7689 23.039 44.3793 22.4287 45.1154 22.0071V22.0071C47.416 20.6614 48.2046 17.7146 46.8835 15.3999V15.3999V15.3766Z" stroke="#7EB539" stroke-width="3.5" stroke-linecap="round" stroke-linejoin="round"/>
<circle cx="24.945" cy="26.2178" r="6.70023" stroke="#7EB539" stroke-width="3.5" stroke-linecap="round" stroke-linejoin="round"/>
</svg>
