<svg width="48" height="51" viewBox="0 0 48 51" fill="none" xmlns="http://www.w3.org/2000/svg">
<path fill-rule="evenodd" clip-rule="evenodd" d="M46.6553 14.0097C47.2212 13.2499 47.1583 12.1694 46.4666 11.4809L35.8836 0.946642L35.6658 0.759548C34.9061 0.198511 33.8298 0.263531 33.1436 0.952974L32.9565 1.17071C32.3954 1.93051 32.4604 3.00674 33.1499 3.69301L40.408 10.9163L9.91909 10.9163L9.65619 10.934C8.71049 11.0623 7.98159 11.8729 7.98159 12.8538C7.98159 13.9238 8.84904 14.7913 9.91909 14.7913L40.4077 14.7913L33.1499 22.0152L32.9618 22.232C32.3972 22.9892 32.4573 24.0658 33.1436 24.7552C33.8984 25.5136 35.1252 25.5164 35.8836 24.7615L46.4666 14.2273L46.4783 14.2138C46.5366 14.1547 46.5911 14.0919 46.6414 14.0257L46.6553 14.0097ZM38.3512 40.4221C39.2969 40.2938 40.0258 39.4832 40.0258 38.5023C40.0258 37.4322 39.1584 36.5648 38.0883 36.5648L7.60066 36.5648L14.8576 29.3409L15.0456 29.124C15.6102 28.3668 15.5501 27.2903 14.8639 26.6009C14.109 25.8425 12.8822 25.8397 12.1238 26.5945L1.54079 37.1288L1.52919 37.1422C1.47087 37.2014 1.41633 37.2642 1.36596 37.3305L1.35215 37.3464C0.786215 38.1062 0.849097 39.1867 1.54079 39.8752L12.1238 50.4094L12.3416 50.5965C13.1014 51.1576 14.1776 51.0925 14.8639 50.4031C15.6188 49.6447 15.6159 48.418 14.8575 47.6631L7.60304 40.4398L38.0883 40.4398L38.3512 40.4221Z" fill="#2C91DA"/>
</svg>
