<svg width="62" height="62" viewBox="0 0 62 62" fill="none" xmlns="http://www.w3.org/2000/svg">
<path fill-rule="evenodd" clip-rule="evenodd" d="M31.0111 5.1665C23.4316 5.1665 17.2871 11.3372 17.2871 18.949C17.2871 26.5609 23.4316 32.7316 31.0111 32.7316C38.5907 32.7316 44.7352 26.5609 44.7352 18.949C44.7352 11.3372 38.5907 5.1665 31.0111 5.1665ZM31.0111 8.90632C36.534 8.90632 41.0112 13.4026 41.0112 18.949C41.0112 24.4955 36.534 28.9918 31.0111 28.9918C25.4882 28.9918 21.0111 24.4955 21.0111 18.949C21.0111 13.4026 25.4882 8.90632 31.0111 8.90632ZM25.3943 38.2871C23.3852 38.4266 21.3544 38.7134 19.3513 39.1427C15.485 39.9391 12.3919 41.5303 11.0754 44.1745C10.5789 45.2086 10.3292 46.3159 10.3334 47.4369C10.3319 48.5498 10.5796 49.6584 11.0583 50.6726C12.3224 53.2864 15.0552 54.7656 18.7453 55.5856L19.4064 55.7235C21.3551 56.1632 23.3866 56.4592 25.4316 56.5982C25.6058 56.6492 26.0209 56.6967 26.4739 56.7199L26.8466 56.7338C27.0382 56.7383 27.2557 56.7394 27.5797 56.7394C30.5191 56.9011 33.5664 56.854 36.5995 56.5958C38.2158 56.4852 39.843 56.2738 41.4567 55.9641L42.664 55.7134C46.6487 54.9274 49.6325 53.4324 50.9397 50.6756C51.9089 48.6288 51.9089 46.2536 50.9402 44.2078C49.6363 41.4578 46.6904 39.9753 42.6337 39.1397C41.0422 38.7999 39.4248 38.5485 37.7959 38.3879L36.6051 38.2871C32.8754 37.9581 29.1241 37.9581 25.3943 38.2871ZM36.2793 42.0126L36.312 42.0152C38.1814 42.1468 40.0394 42.4092 41.8725 42.8005C44.8857 43.4212 46.9306 44.4504 47.5776 45.8147C48.0647 46.8435 48.0647 48.0389 47.5771 49.0687C46.9727 50.3435 45.1361 51.3284 42.4816 51.9303L41.9005 52.0534C40.0314 52.4704 38.1795 52.7392 36.3154 52.867C33.4231 53.113 30.5479 53.1574 27.6799 53.0023L26.6631 52.9849C26.3808 52.9705 26.1429 52.9432 25.9225 52.899C24.1768 52.7672 22.606 52.5587 21.0808 52.2564L20.1701 52.0636C17.1475 51.4712 15.0845 50.4376 14.4157 49.0547C14.1816 48.5587 14.0566 47.999 14.0574 47.4323C14.0553 46.8688 14.1786 46.3216 14.4181 45.8227C15.0685 44.5169 17.2547 43.3922 20.114 42.8032C21.9603 42.4076 23.8174 42.1453 25.686 42.0153C29.2331 41.7027 32.7664 41.7027 36.2793 42.0126Z" fill="#B34264"/>
</svg>
