<svg width="61" height="61" viewBox="0 0 61 61" fill="none" xmlns="http://www.w3.org/2000/svg">
<path fill-rule="evenodd" clip-rule="evenodd" d="M54.999 36.5893H44.7095C40.9315 36.587 37.8692 33.5271 37.8669 29.749C37.8669 25.971 40.9315 22.911 44.7095 22.9087H54.999" fill="#609DF8"/>
<path d="M54.999 36.5893H44.7095C40.9315 36.587 37.8692 33.5271 37.8669 29.749C37.8669 25.971 40.9315 22.911 44.7095 22.9087H54.999" stroke="#200E32" stroke-width="3.5" stroke-linecap="round" stroke-linejoin="round"/>
<path fill-rule="evenodd" clip-rule="evenodd" d="M45.8735 29.5923H45.0813Z" fill="#609DF8"/>
<path d="M45.8735 29.5923H45.0813" stroke="#200E32" stroke-width="3.5" stroke-linecap="round" stroke-linejoin="round"/>
<path fill-rule="evenodd" clip-rule="evenodd" d="M19.692 7.625H41.6607C49.0268 7.625 54.9985 13.5967 54.9985 20.9628V39.2044C54.9985 46.5706 49.0268 52.5423 41.6607 52.5423H19.692C12.3258 52.5423 6.35417 46.5706 6.35417 39.2044V20.9628C6.35417 13.5967 12.3258 7.625 19.692 7.625Z" fill="#609DF8" stroke="#200E32" stroke-width="3.5" stroke-linecap="round" stroke-linejoin="round"/>
<path fill-rule="evenodd" clip-rule="evenodd" d="M17.8822 19.1597H31.6045Z" fill="#609DF8"/>
<path d="M17.8822 19.1597H31.6045" stroke="#200E32" stroke-width="3.5" stroke-linecap="round" stroke-linejoin="round"/>
</svg>
