<svg width="62" height="62" viewBox="0 0 62 62" fill="none" xmlns="http://www.w3.org/2000/svg">
<path fill-rule="evenodd" clip-rule="evenodd" d="M12.2495 11.2891L29.4121 5.4292C30.4413 5.0788 31.5632 5.0788 32.5904 5.43005L49.7484 11.2884C51.6719 11.9428 52.9584 13.7056 52.9584 15.6858V32.8434C52.9584 38.0606 51.0164 43.0885 47.518 47.0084C45.8641 48.8595 43.7616 50.4014 41.2217 51.736L31.945 56.6049C31.3654 56.9091 30.667 56.9093 30.0871 56.6053L20.7949 51.7339C18.2454 50.3975 16.1423 48.858 14.4903 47.0063C10.9867 43.0871 9.04169 38.0561 9.04169 32.8333V15.6858C9.04169 13.7056 10.3281 11.9428 12.2495 11.2891ZM48.4539 14.8741L31.2921 9.01441C31.1043 8.95021 30.8965 8.95021 30.7071 9.0147L13.544 14.8748C13.1892 14.9955 12.9526 15.3198 12.9526 15.6858V32.8333C12.9526 37.1382 14.5557 41.2848 17.4441 44.5159C18.7579 45.9885 20.4905 47.2568 22.6519 48.3898L31.0128 52.7729L39.3621 48.3932C41.2456 47.4035 42.8084 46.3063 44.051 45.0611L44.5639 44.5182C47.4467 41.2882 49.0475 37.1436 49.0475 32.8434V15.6858C49.0475 15.3198 48.8108 14.9955 48.4539 14.8741ZM24.7183 24.3147C25.4125 23.6402 26.4988 23.5788 27.2644 24.1307L27.4837 24.3147L31.0003 27.7314L34.5169 24.3147C35.2805 23.5727 36.5186 23.5727 37.2823 24.3147C37.9765 24.9892 38.0396 26.0447 37.4716 26.7885L37.2823 27.0016L33.7657 30.4183L37.2818 33.8346C38.0454 34.5765 38.0454 35.7795 37.2818 36.5215C36.5875 37.196 35.5012 37.2573 34.7357 36.7054L34.5164 36.5215L31.0003 33.1052L27.4842 36.5215C26.7206 37.2635 25.4824 37.2635 24.7188 36.5215C24.0246 35.847 23.9615 34.7915 24.5295 34.0477L24.7188 33.8346L28.2349 30.4183L24.7183 27.0016C23.9546 26.2596 23.9546 25.0566 24.7183 24.3147Z" fill="#33A04B"/>
</svg>
