<svg width="62" height="62" viewBox="0 0 62 62" fill="none" xmlns="http://www.w3.org/2000/svg">
<path fill-rule="evenodd" clip-rule="evenodd" d="M56.0702 11.8611C56.8751 8.22978 53.4982 4.95308 49.842 6.01121L9.39595 17.7802L9.00563 17.91C5.20919 19.3387 4.62669 24.6261 8.18257 26.8152L24.911 37.112L34.9751 53.785L35.2012 54.1293C37.5604 57.4346 42.7846 56.634 43.9757 52.6273L55.9756 12.2252L56.0702 11.8611ZM51.1103 9.69543C51.8563 9.61533 52.4938 10.341 52.2615 11.1202L40.2612 51.5236L40.1825 51.7217C39.8074 52.4592 38.7462 52.5342 38.2927 51.7828L28.7654 36.0011L42.3343 22.3448L42.5212 22.1269C43.0815 21.3665 43.0153 20.2903 42.3252 19.6048L42.1073 19.4179C41.3469 18.8576 40.2707 18.9237 39.5852 19.6139L26.0348 33.2525L10.2138 23.5153L10.043 23.387C9.42863 22.8273 9.63544 21.7456 10.4773 21.5012L50.9219 9.73268L51.1103 9.69543Z" fill="#EBDE6E"/>
</svg>
