<svg width="52" height="50" viewBox="0 0 52 50" fill="none" xmlns="http://www.w3.org/2000/svg">
<path fill-rule="evenodd" clip-rule="evenodd" d="M15.0464 10.0524C15.0464 7.24442 12.7336 4.95844 9.88593 4.95844C7.04127 4.95844 4.72543 7.24442 4.72543 10.0524C4.72543 12.8604 7.04127 15.1463 9.88593 15.1463C12.7336 15.1463 15.0464 12.8604 15.0464 10.0524ZM19.6052 10.0524C19.6052 15.3413 15.247 19.6463 9.88593 19.6463C4.52788 19.6463 0.166687 15.3413 0.166687 10.0524C0.166687 4.76345 4.52788 0.458496 9.88593 0.458496C15.247 0.458496 19.6052 4.76345 19.6052 10.0524ZM51.8334 10.053C51.8334 8.811 50.8122 7.80301 49.554 7.80301H30.8631C29.6049 7.80301 28.5838 8.811 28.5838 10.053C28.5838 11.295 29.6049 12.303 30.8631 12.303H49.554C50.8122 12.303 51.8334 11.295 51.8334 10.053ZM36.9527 39.9479C36.9527 42.7559 39.2655 45.0419 42.1132 45.0419C44.9609 45.0419 47.2737 42.7559 47.2737 39.9479C47.2737 37.137 44.9609 34.854 42.1132 34.854C39.2655 34.854 36.9527 37.137 36.9527 39.9479ZM32.394 39.9479C32.394 34.656 36.7521 30.354 42.1132 30.354C47.4743 30.354 51.8324 34.656 51.8324 39.9479C51.8324 45.2369 47.4743 49.5418 42.1132 49.5418C36.7521 49.5418 32.394 45.2369 32.394 39.9479ZM2.44819 37.6973H21.136C22.3942 37.6973 23.4154 38.7053 23.4154 39.9472C23.4154 41.1892 22.3942 42.1972 21.136 42.1972H2.44819C1.18998 42.1972 0.168823 41.1892 0.168823 39.9472C0.168823 38.7053 1.18998 37.6973 2.44819 37.6973Z" fill="#3B5C3C"/>
</svg>
