<svg width="65" height="65" viewBox="0 0 65 65" fill="none" xmlns="http://www.w3.org/2000/svg">
<path fill-rule="evenodd" clip-rule="evenodd" d="M44.239 5.41699H20.7604C11.5587 5.41699 5.41772 12.0053 5.41772 21.4395V43.5612C5.41772 53.0043 11.5423 59.5837 20.7604 59.5837H44.2363C53.4571 59.5837 59.5844 53.0042 59.5844 43.5612V21.4395C59.5844 11.9969 53.4576 5.41699 44.239 5.41699ZM20.7604 9.47949H44.239C51.1466 9.47949 55.5219 14.1784 55.5219 21.4395V43.5612C55.5219 50.8226 51.1463 55.5212 44.2363 55.5212H20.7604C13.8535 55.5212 9.48022 50.8231 9.48022 43.5612V21.4395C9.48022 14.1876 13.8686 9.47949 20.7604 9.47949ZM23.9425 25.4532C20.0529 25.4532 16.8981 28.6104 16.8981 32.5003C16.8981 36.3902 20.0529 39.5474 23.9425 39.5474C27.1279 39.5474 29.82 37.4326 30.6922 34.5315L36.3772 34.5313V37.5148L36.3958 37.7904C36.5303 38.7819 37.3801 39.5461 38.4085 39.5461C39.5303 39.5461 40.4397 38.6366 40.4397 37.5148V34.5312L44.0375 34.531L44.0383 37.5162L44.0568 37.7918C44.1913 38.7832 45.0412 39.5474 46.0695 39.5474C47.1914 39.5474 48.1008 38.638 48.1008 37.5162V32.5003L48.0822 32.2247C47.9477 31.2332 47.0979 30.4691 46.0695 30.4691H38.4833C38.4585 30.4682 38.4335 30.4677 38.4085 30.4677C38.3834 30.4677 38.3585 30.4682 38.3337 30.4691H30.6922C29.8199 27.568 27.1278 25.4532 23.9425 25.4532ZM23.9425 29.5157C25.5894 29.5157 26.9259 30.852 26.927 32.4982V32.5003C26.927 34.1475 25.5901 35.4849 23.9425 35.4849C22.2972 35.4849 20.9606 34.1473 20.9606 32.5003C20.9606 30.8534 22.2972 29.5157 23.9425 29.5157Z" fill="#30AABB"/>
</svg>
